<svg width="30" height="32" viewBox="0 0 30 32" fill="none" xmlns="http://www.w3.org/2000/svg">
<g filter="url(#filter0_d_3_112)">
<path d="M7.8 2.79999C7.80356 2.86282 7.8268 2.92295 7.86641 2.97185C7.90603 3.02075 7.96002 3.05595 8.02075 3.07248C8.08148 3.089 8.14586 3.08601 8.2048 3.06392C8.26373 3.04184 8.31422 3.00178 8.34913 2.94941C8.38404 2.89705 8.4016 2.83503 8.39932 2.77213C8.39704 2.70924 8.37504 2.64866 8.33643 2.59896C8.29782 2.54926 8.24456 2.51296 8.18418 2.4952C8.12381 2.47744 8.05937 2.47911 8 2.49999H7C6.46957 2.49999 5.96086 2.7107 5.58579 3.08578C5.21071 3.46085 5 3.96956 5 4.49999V9.49999C5 11.0913 5.63214 12.6174 6.75736 13.7426C7.88258 14.8678 9.4087 15.5 11 15.5C12.5913 15.5 14.1174 14.8678 15.2426 13.7426C16.3679 12.6174 17 11.0913 17 9.49999V4.49999C17 3.96956 16.7893 3.46085 16.4142 3.08578C16.0391 2.7107 15.5304 2.49999 15 2.49999H14C13.9803 2.51969 13.9647 2.54307 13.954 2.56881C13.9434 2.59455 13.9379 2.62213 13.9379 2.64999C13.9379 2.67785 13.9434 2.70543 13.954 2.73117C13.9647 2.75691 13.9803 2.78029 14 2.79999C14.0197 2.81969 14.0431 2.83531 14.0688 2.84597C14.0946 2.85663 14.1221 2.86212 14.15 2.86212C14.1779 2.86212 14.2054 2.85663 14.2312 2.84597C14.2569 2.83531 14.2803 2.81969 14.3 2.79999" stroke="black" stroke-width="2" stroke-linecap="round" stroke-linejoin="round"/>
<path d="M11 15.5V16.5C11 18.0913 11.6321 19.6174 12.7574 20.7426C13.8826 21.8679 15.4087 22.5 17 22.5V22.5C18.5913 22.5 20.1174 21.8679 21.2426 20.7426C22.3679 19.6174 23 18.0913 23 16.5V12.5" stroke="black" stroke-width="2" stroke-linecap="round" stroke-linejoin="round"/>
<path d="M23 12.5C24.1046 12.5 25 11.6046 25 10.5C25 9.39543 24.1046 8.5 23 8.5C21.8954 8.5 21 9.39543 21 10.5C21 11.6046 21.8954 12.5 23 12.5Z" stroke="black" stroke-width="2" stroke-linecap="round" stroke-linejoin="round"/>
</g>
<defs>
<filter id="filter0_d_3_112" x="-1" y="0.5" width="32" height="32" filterUnits="userSpaceOnUse" color-interpolation-filters="sRGB">
<feFlood flood-opacity="0" result="BackgroundImageFix"/>
<feColorMatrix in="SourceAlpha" type="matrix" values="0 0 0 0 0 0 0 0 0 0 0 0 0 0 0 0 0 0 127 0" result="hardAlpha"/>
<feOffset dy="4"/>
<feGaussianBlur stdDeviation="2"/>
<feComposite in2="hardAlpha" operator="out"/>
<feColorMatrix type="matrix" values="0 0 0 0 0 0 0 0 0 0 0 0 0 0 0 0 0 0 0.25 0"/>
<feBlend mode="normal" in2="BackgroundImageFix" result="effect1_dropShadow_3_112"/>
<feBlend mode="normal" in="SourceGraphic" in2="effect1_dropShadow_3_112" result="shape"/>
</filter>
</defs>
</svg>
